<?xml version="1.0" encoding="UTF-8"?>
<svg width="120px" height="120px" viewBox="0 0 120 120" version="1.1" xmlns="http://www.w3.org/2000/svg" xmlns:xlink="http://www.w3.org/1999/xlink">
    <!-- Generator: Sketch 57.1 (83088) - https://sketch.com -->
    <title>Icon / General / Credit Card</title>
    <desc>Created with Sketch.</desc>
    <g id="Icon-/-General-/-Credit-Card" stroke="none" stroke-width="1" fill="none" fill-rule="evenodd">
        <path d="M102.958984,22.6464844 L17.03125,22.6464844 C13.1445312,22.6464844 10,25.7910156 10,29.6777344 L10,41.4453125 L10,50.8203125 L10,90.3320313 C10,94.21875 13.1445312,97.3632813 17.03125,97.3632813 L102.96875,97.3632813 C106.855469,97.3632813 110,94.21875 110,90.3320313 L110,50.8203125 L110,41.4453125 L110,29.6777344 C109.990234,25.7910156 106.835938,22.6464844 102.958984,22.6464844 Z M102.958984,90.3320312 L17.03125,90.3320312 L17.03125,50.8203125 L102.958984,50.8203125 L102.958984,90.3320312 Z M17.03125,41.4453125 L17.03125,29.6777344 L102.958984,29.6777344 L102.958984,41.4453125 L17.03125,41.4453125 Z M33.1445312,78.75 L33.1445312,78.75 C35.5175781,78.75 37.4414062,76.8261719 37.4414062,74.453125 L37.4414062,74.453125 C37.4414062,72.0800781 35.5175781,70.15625 33.1445312,70.15625 L33.1445312,70.15625 C30.7714844,70.15625 28.8476562,72.0800781 28.8476562,74.453125 L28.8476562,74.453125 C28.8476562,76.8261719 30.7714844,78.75 33.1445312,78.75 Z M49.4042969,78.75 L49.4042969,78.75 C51.7773438,78.75 53.7011719,76.8261719 53.7011719,74.453125 L53.7011719,74.453125 C53.7011719,72.0800781 51.7773438,70.15625 49.4042969,70.15625 L49.4042969,70.15625 C47.03125,70.15625 45.1074219,72.0800781 45.1074219,74.453125 L45.1074219,74.453125 C45.1074219,76.8261719 47.03125,78.75 49.4042969,78.75 Z" id="Shape" fill="#BDBDBD"></path>
    </g>
</svg>