<?xml version="1.0" encoding="UTF-8"?>
<svg width="96px" height="96px" viewBox="0 0 96 96" version="1.1" xmlns="http://www.w3.org/2000/svg" xmlns:xlink="http://www.w3.org/1999/xlink">
    <!-- Generator: Sketch 57.1 (83088) - https://sketch.com -->
    <title>Icon / Prompt / Confirm</title>
    <desc>Created with Sketch.</desc>
    <g id="Mobile-App" stroke="none" stroke-width="1" fill="none" fill-rule="evenodd">
        <g id="Sign-In-Up---Back-To-Login" transform="translate(-140.000000, -212.000000)">
            <g id="Icon-/-Prompt-/-Confirm" transform="translate(128.000000, 200.000000)">
                <g id="Success" transform="translate(12.000000, 12.000000)">
                    <circle id="Oval-3" fill="#65D776" cx="48" cy="48" r="48"></circle>
                    <path d="M62.4,33.6 C61.0752,33.6 59.8752,34.1376 59.0064,35.0064 L54.2064,39.8064 L43.2,50.8128 L36.9936,44.6064 C36.1248,43.7376 34.9248,43.2 33.6,43.2 C30.948,43.2 28.8,45.348 28.8,48 C28.8,49.3248 29.3376,50.5248 30.2064,51.3936 L39.8064,60.9936 C40.6752,61.8624 41.8752,62.4 43.2,62.4 C44.5248,62.4 45.7248,61.8624 46.5936,60.9936 L60.9936,46.5936 L65.7936,41.7936 C66.6624,40.9248 67.2,39.7248 67.2,38.4 C67.2,35.748 65.052,33.6 62.4,33.6" id="Fill-1" fill="#FFFFFF"></path>
                </g>
            </g>
        </g>
    </g>
</svg>