<?xml version="1.0" encoding="UTF-8"?>
<svg width="120px" height="120px" viewBox="0 0 120 120" version="1.1" xmlns="http://www.w3.org/2000/svg" xmlns:xlink="http://www.w3.org/1999/xlink">
    <!-- Generator: Sketch 57.1 (83088) - https://sketch.com -->
    <title>Icon / General / Emote Okay (Off)</title>
    <desc>Created with Sketch.</desc>
    <g id="Icon-/-General-/-Emote-Okay-(Off)" stroke="none" stroke-width="1" fill="none" fill-rule="evenodd">
        <path d="M60,10 C32.3828125,10 10,32.3828125 10,60 C10,87.6171875 32.3828125,110 60,110 C87.6171875,110 110,87.6171875 110,60 C110,32.3828125 87.6171875,10 60,10 Z M90.3808594,90.3808594 C86.4355469,94.3261719 81.8359375,97.4316406 76.71875,99.5898438 C71.4257812,101.835938 65.8007812,102.96875 60,102.96875 C54.1992188,102.96875 48.5742188,101.835938 43.28125,99.5996094 C38.1640625,97.4316406 33.5742188,94.3359375 29.6191406,90.390625 C25.6738281,86.4453125 22.5683594,81.8457031 20.4101562,76.7285156 C18.1640625,71.4257812 17.03125,65.8007812 17.03125,60 C17.03125,54.1992188 18.1640625,48.5742188 20.4003906,43.28125 C22.5683594,38.1640625 25.6640625,33.5742188 29.609375,29.6191406 C33.5546875,25.6738281 38.1542969,22.5683594 43.2714844,20.4101562 C48.5742188,18.1640625 54.1992188,17.03125 60,17.03125 C65.8007812,17.03125 71.4257812,18.1640625 76.71875,20.4003906 C81.8359375,22.5683594 86.4257812,25.6640625 90.3808594,29.609375 C94.3261719,33.5546875 97.4316406,38.1542969 99.5898438,43.2714844 C101.835938,48.5742188 102.96875,54.1992188 102.96875,60 C102.96875,65.8007812 101.835938,71.4257812 99.5996094,76.71875 C97.4316406,81.8359375 94.3359375,86.4355469 90.3808594,90.3808594 Z M60,86.7558594 C53.9330982,86.7558594 44.896164,83.0525197 43.9550781,74.7109375 C43.7362027,72.7708726 45.5273437,71.1953125 47.4707031,71.1953125 C49.4140625,71.1953125 50.1054358,72.8192723 50.9863281,74.7109375 C53.3755016,79.8415487 58.0762832,80.4561963 60,80.4561963 C61.9237168,80.4561963 65.8956201,79.8907741 69.0136719,74.7109375 C70.1343382,72.8492402 70.5859375,71.1953125 72.5292969,71.1953125 C74.4726562,71.1953125 76.2406842,72.7702014 76.0449219,74.7109375 C75.1900861,83.1855545 66.0669018,86.7558594 60,86.7558594 Z M28.9648438,47.34375 C28.9648438,50.5797935 31.5881753,53.203125 34.8242188,53.203125 C38.0602622,53.203125 40.6835938,50.5797935 40.6835938,47.34375 C40.6835938,44.1077065 38.0602622,41.484375 34.8242188,41.484375 C31.5881753,41.484375 28.9648438,44.1077065 28.9648438,47.34375 Z M79.2871094,47.34375 C79.2871094,50.5797935 81.9104409,53.203125 85.1464844,53.203125 C88.3825278,53.203125 91.0058594,50.5797935 91.0058594,47.34375 C91.0058594,44.1077065 88.3825278,41.484375 85.1464844,41.484375 C81.9104409,41.484375 79.2871094,44.1077065 79.2871094,47.34375 Z" id="Shape" fill="#BDBDBD"></path>
    </g>
</svg>