<?xml version="1.0" encoding="UTF-8"?>
<svg width="120px" height="120px" viewBox="0 0 120 120" version="1.1" xmlns="http://www.w3.org/2000/svg" xmlns:xlink="http://www.w3.org/1999/xlink">
    <!-- Generator: Sketch 57.1 (83088) - https://sketch.com -->
    <title>Icon / General / Emote Okay (On)</title>
    <desc>Created with Sketch.</desc>
    <g id="Icon-/-General-/-Emote-Okay-(On)" stroke="none" stroke-width="1" fill="none" fill-rule="evenodd">
        <path d="M60,10 C32.3828125,10 10,32.3828125 10,60 C10,87.6171875 32.3828125,110 60,110 C87.6171875,110 110,87.6171875 110,60 C110,32.3828125 87.6171875,10 60,10 Z M34.8242188,53.203125 C31.5917969,53.203125 28.9648438,50.5761719 28.9648438,47.34375 C28.9648438,44.1113281 31.5917969,41.484375 34.8242188,41.484375 C38.0566406,41.484375 40.6835938,44.1113281 40.6835938,47.34375 C40.6835938,50.5761719 38.0566406,53.203125 34.8242188,53.203125 Z M60,86.7558594 C53.9330982,86.7558594 46.9593891,83.7822662 43.9550781,75.7109375 C43.2432464,73.7985429 44.1183749,71.1953125 46.4707031,71.1953125 C48.8230314,71.1953125 50.1054358,72.8192723 50.9863281,74.7109375 C53.3755016,79.8415487 58.0762832,80.4561963 60,80.4561963 C61.9237168,80.4561963 65.8956201,79.8907741 69.0136719,74.7109375 C70.1343382,72.8492402 71.2655274,71.1953125 73.5292969,71.1953125 C75.7930663,71.1953125 76.7198488,73.7955057 76.0449219,75.7109375 C73.2159364,83.7395525 66.0669018,86.7558594 60,86.7558594 Z M85.1464844,53.203125 C81.9140625,53.203125 79.2871094,50.5761719 79.2871094,47.34375 C79.2871094,44.1113281 81.9140625,41.484375 85.1464844,41.484375 C88.3789062,41.484375 91.0058594,44.1113281 91.0058594,47.34375 C91.0058594,50.5761719 88.3789062,53.203125 85.1464844,53.203125 Z" id="Shape" fill="#69C0FF"></path>
    </g>
</svg>