<?xml version="1.0" encoding="UTF-8"?>
<svg width="60px" height="60px" viewBox="0 0 60 60" version="1.1" xmlns="http://www.w3.org/2000/svg" xmlns:xlink="http://www.w3.org/1999/xlink">
    <!-- Generator: Sketch 57.1 (83088) - https://sketch.com -->
    <title>File Type - Epub</title>
    <desc>Created with Sketch.</desc>
    <g id="Components" stroke="none" stroke-width="1" fill="none" fill-rule="evenodd">
        <g id="Component-/-List-/-Docs" transform="translate(-28.000000, 0.000000)">
            <g id="Group-2">
                <g id="File-Type---Epub" transform="translate(28.000000, 0.000000)">
                    <rect id="Rectangle" fill="#5196db" x="0" y="0" width="60" height="60" rx="10"></rect>
                    <g id="Group" transform="translate(8.000000, 8.000000)" fill="#FFFFFF">
                        <g id="Icon-/-File-Type-/-Epub" transform="translate(0.400000, 0.000000)">
                            <path d="M35.0195312,14.4733073 L25.0722656,4.42936198 C24.9111328,4.26822917 24.7356771,4.13216146 24.5458984,4.01757812 C24.4957682,3.98893229 24.445638,3.96028646 24.3919271,3.93522135 C24.3597005,3.91731771 24.3238932,3.90299479 24.2916667,3.88867188 C23.969401,3.74544271 23.6149089,3.66666667 23.2532552,3.66666667 L10.8997396,3.66666667 C9.47460938,3.66666667 8.28580729,4.81966146 8.28580729,6.24479167 L8.28580729,37.7552083 C8.28580729,39.1803385 9.47460938,40.3333333 10.8997396,40.3333333 L33.2076823,40.3333333 C34.6328125,40.3333333 35.75,39.1803385 35.75,37.7552083 L35.75,16.288737 C35.75,15.6083984 35.499349,14.9567057 35.0195312,14.4733073 Z M24.578125,7.61979167 L31.7682292,14.8385417 L24.578125,14.8385417 L24.578125,7.61979167 Z M33.171875,37.7552083 L10.8639323,37.7552083 L10.8639323,6.24479167 L22,6.24479167 L22,14.8385417 C22,16.2636719 23.1888021,17.4166667 24.6139323,17.4166667 L33.171875,17.4166667 L33.171875,37.7552083 Z M16.235026,28.6064453 C16.235026,29.4729818 15.9664714,29.7307943 15.4508464,29.7307943 C15.1285807,29.7307943 14.7919922,29.523112 14.5628255,29.0683594 L13.4742839,29.8776042 C13.9541016,30.6975911 14.6308594,31.1022135 15.6692708,31.1022135 C17.1588542,31.1022135 17.8463542,30.0315755 17.8463542,28.7317708 L17.8463542,24.327474 L16.235026,24.327474 L16.235026,28.6064453 Z M21.6526693,24.327474 L19.3502604,24.327474 L19.3502604,30.9876302 L20.9257812,30.9876302 L20.9257812,28.7675781 L21.6992188,28.7675781 C23.0992839,28.7675781 24.3167318,28.0657552 24.3167318,26.4902344 C24.3167318,24.8502604 23.1171875,24.327474 21.6526693,24.327474 L21.6526693,24.327474 Z M21.6240234,27.5143229 L20.9257812,27.5143229 L20.9257812,25.6165365 L21.577474,25.6165365 C22.3473307,25.6165365 22.7734375,25.8385417 22.7734375,26.508138 C22.7734375,27.15625 22.3974609,27.5143229 21.6240234,27.5143229 Z M28.1588542,27.1920573 L28.1588542,28.4811198 L29.2330729,28.4811198 L29.2330729,29.5589193 C29.0898438,29.6627604 28.8391927,29.7272135 28.5992839,29.7272135 C27.3710938,29.7272135 26.7838542,28.9609375 26.7838542,27.6432292 C26.7838542,26.3505859 27.4892578,25.5878906 28.4703776,25.5878906 C29.0182292,25.5878906 29.3655599,25.8098958 29.6878255,26.1035156 L30.5364583,25.0901693 C30.0817057,24.6318359 29.3870443,24.2236328 28.4166667,24.2236328 C26.640625,24.2236328 25.1546224,25.4876302 25.1546224,27.6969401 C25.1546224,29.9420573 26.5869141,31.1022135 28.4309896,31.1022135 C29.3583984,31.1022135 30.1927083,30.7369792 30.633138,30.2929688 L30.633138,27.1920573 L28.1588542,27.1920573 Z" id="Shape"></path>
                        </g>
                    </g>
                </g>
            </g>
        </g>
    </g>
</svg>