<?xml version="1.0" encoding="UTF-8"?>
<svg width="60px" height="60px" viewBox="0 0 60 60" version="1.1" xmlns="http://www.w3.org/2000/svg" xmlns:xlink="http://www.w3.org/1999/xlink">
    <!-- Generator: Sketch 49.1 (51147) - http://www.bohemiancoding.com/sketch -->
    <title>EPUG</title>
    <desc>Created with Sketch.</desc>
    <defs></defs>
    <g id="Page-1" stroke="none" stroke-width="1" fill="none" fill-rule="evenodd">
        <g id="EPUG">
            <rect id="Rectangle" fill="#B27DE1" fill-rule="nonzero" x="0" y="0" width="60" height="60" rx="10"></rect>
            <path d="M43.7337239,22.8066406 L33.7864583,12.7626953 C33.6253255,12.6015625 33.4498698,12.4654948 33.2600911,12.3509114 C33.2099609,12.3222656 33.1598307,12.2936198 33.1061198,12.2685547 C33.0738932,12.250651 33.0380859,12.2363281 33.0058594,12.2220052 C32.6835937,12.078776 32.3291016,12 31.9674479,12 L19.6139323,12 C18.1888021,12 17,13.1529948 17,14.578125 L17,46.0885416 C17,47.5136718 18.1888021,48.6666666 19.6139323,48.6666666 L41.921875,48.6666666 C43.3470052,48.6666666 44.4641927,47.5136718 44.4641927,46.0885416 L44.4641927,24.6220703 C44.4641927,23.9417317 44.2135417,23.290039 43.7337239,22.8066406 Z M33.2923177,15.953125 L40.4824219,23.171875 L33.2923177,23.171875 L33.2923177,15.953125 Z M41.8860677,46.0885416 L19.578125,46.0885416 L19.578125,14.578125 L30.7141927,14.578125 L30.7141927,23.171875 C30.7141927,24.5970052 31.9029948,25.75 33.328125,25.75 L41.8860677,25.75 L41.8860677,46.0885416 Z" id="Shape" fill="#FFFFFF" fill-rule="nonzero"></path>
            <text font-family="Avenir-Black, Avenir" font-size="7" font-weight="700" fill="#FFFFFF">
                <tspan x="21" y="39">EPUG</tspan>
            </text>
        </g>
    </g>
</svg>
