<?xml version="1.0" encoding="UTF-8"?>
<svg width="120px" height="120px" viewBox="0 0 120 120" version="1.1" xmlns="http://www.w3.org/2000/svg" xmlns:xlink="http://www.w3.org/1999/xlink">
    <!-- Generator: Sketch 57.1 (83088) - https://sketch.com -->
    <title>Icon / Snackbar / Events</title>
    <desc>Created with Sketch.</desc>
    <g id="Icon-/-Snackbar-/-Events" stroke="none" stroke-width="1" fill="none" fill-rule="evenodd">
        <path d="M100.039062,46.8847656 L94.4433594,46.8847656 L94.4433594,45.1660156 C94.4433594,42.5292969 92.3632812,40.3808594 89.8144531,40.3808594 L72.9882813,40.3808594 C72.2851562,39.0332031 71.2304688,38.0566406 69.7851563,38.0566406 C45.2539063,38.0566406 23.2128906,16.8066406 23.2128906,16.8066406 C22.5,16.4257812 21.7578125,16.25 21.0351563,16.25 C18.6230469,16.25 16.4257813,18.1835938 16.4257813,20.859375 C16.4257813,61.7480469 16.4257813,99.0917969 16.4257813,99.0917969 C16.4257813,101.787109 18.6328125,103.701172 21.0351563,103.701172 C21.8164063,103.701172 22.6269531,103.496094 23.3789063,103.046875 C23.3789063,103.046875 43.7402344,77.6171875 70.0683594,77.6171875 C71.4160156,77.6171875 72.3828125,76.7089844 73.0273438,75.4492188 L73.4277344,75.4492188 C73.5644531,81.3378906 72.1875,87.6074219 70.9082031,92.1289062 C70.1660156,94.7558594 71.2011719,97.5195312 73.4863281,99.0136719 C74.5214844,99.6875 75.703125,100.029297 76.875,100.029297 C78.28125,100.029297 79.6777344,99.5410156 80.8300781,98.59375 C87.5878906,92.9785156 90.1171875,86.5234375 91.0546875,82.0996094 C91.640625,79.3359375 91.6894531,77.0019531 91.6210938,75.4589844 C91.9726562,75.0097656 92.3046875,74.5214844 92.6269531,74.0332031 C94.453125,71.2304687 94.453125,70.1464844 94.453125,69.6289062 L94.453125,67.421875 L100.039062,67.421875 C101.982422,67.421875 103.554688,65.8496094 103.554688,63.90625 L103.554688,50.4003906 C103.554688,48.4570312 101.982422,46.8847656 100.039062,46.8847656 Z M67.0507812,70.6835938 C61.0644531,71.0644531 54.9804687,72.5488281 48.9160156,75.1171875 C43.4179688,77.4511719 37.9296875,80.6835938 32.5976563,84.7265625 C28.9257813,87.5097656 25.8398438,90.2929688 23.4472656,92.6367188 L23.4472656,26.2695312 C26.0253906,28.3203125 29.4824219,30.8691406 33.5839844,33.4082031 C38.9746094,36.7480469 44.4140625,39.4238281 49.7558594,41.3476562 C55.6347656,43.4667969 61.4160156,44.6972656 66.9824219,45.0097656 C66.9824219,45.0683594 66.9824219,45.1171875 66.9824219,45.1757812 C66.9824219,45.4003906 67.0019531,45.6152344 67.0410156,45.8203125 L67.0410156,70.5761719 C67.0507812,70.6152344 67.0507812,70.6445312 67.0507812,70.6835938 Z M87.4121094,69.0429688 C87.109375,69.6386719 86.4746094,70.6152344 86.09375,71.1035156 C85.78125,71.2988281 85.4980469,71.5429688 85.2636719,71.8261719 C84.5996094,72.6269531 84.3164062,73.6816406 84.5019531,74.7070312 C84.5019531,74.7265625 84.9023438,77.2265625 84.1796875,80.6445312 C83.3398438,84.6289062 81.40625,88.1835938 78.4277344,91.25 C79.84375,85.5371094 81.0351563,78.1933594 80.1953125,71.4941406 C79.9707031,69.7363281 78.4765625,68.4179688 76.7089844,68.4179688 L74.2089844,68.4179688 L74.2089844,65.4980469 C74.2089844,65.1757813 74.1601563,64.8632813 74.0820313,64.5703125 L74.0820313,47.4121094 L87.4121094,47.4121094 L87.4121094,69.0429688 Z M96.5234375,60.390625 L94.4433594,60.390625 L94.4433594,53.9160156 L96.5234375,53.9160156 L96.5234375,60.390625 Z" id="Shape" fill="#69C0FF"></path>
    </g>
</svg>