<?xml version="1.0" encoding="UTF-8"?>
<svg width="120px" height="120px" viewBox="0 0 120 120" version="1.1" xmlns="http://www.w3.org/2000/svg" xmlns:xlink="http://www.w3.org/1999/xlink">
    <!-- Generator: Sketch 57.1 (83088) - https://sketch.com -->
    <title>Icon / General / Gifted</title>
    <desc>Created with Sketch.</desc>
    <g id="Icon-/-General-/-Gifted" stroke="none" stroke-width="1" fill="none" fill-rule="evenodd">
        <path d="M96.71875,41.25 L72.5,41.25 C79.4042969,41.25 85,35.6542969 85,28.75 C85,21.8457031 79.4042969,16.25 72.5,16.25 C65.5957031,16.25 60,21.8457031 60,28.75 C60,21.8457031 54.4042969,16.25 47.5,16.25 C40.5957031,16.25 35,21.8457031 35,28.75 C35,35.6542969 40.5957031,41.25 47.5,41.25 L23.28125,41.25 C19.3945312,41.25 16.25,44.3945312 16.25,48.28125 L16.25,59.21875 C16.25,63.1054687 19.3945312,66.25 23.28125,66.25 L22.5,66.25 L22.5,96.71875 C22.5,100.605469 25.6445312,103.75 29.53125,103.75 L90.46875,103.75 C94.3554688,103.75 97.5,100.605469 97.5,96.71875 L97.5,66.25 L96.71875,66.25 C100.605469,66.25 103.75,63.1054687 103.75,59.21875 L103.75,48.28125 C103.75,44.3945312 100.605469,41.25 96.71875,41.25 Z M47.5,34.21875 C44.4824219,34.21875 42.03125,31.7675781 42.03125,28.75 C42.03125,25.7324219 44.4824219,23.28125 47.5,23.28125 C50.5175781,23.28125 52.96875,25.7324219 52.96875,28.75 L52.96875,34.21875 L47.5,34.21875 Z M56.484375,96.71875 L29.53125,96.71875 L29.53125,66.25 L56.484375,66.25 L56.484375,96.71875 Z M56.484375,59.21875 L23.28125,59.21875 L23.28125,48.28125 L56.484375,48.28125 L56.484375,59.21875 Z M67.03125,28.75 C67.03125,25.7324219 69.4824219,23.28125 72.5,23.28125 C75.5175781,23.28125 77.96875,25.7324219 77.96875,28.75 C77.96875,31.7675781 75.5175781,34.21875 72.5,34.21875 L67.03125,34.21875 L67.03125,28.75 Z M90.46875,96.71875 L63.515625,96.71875 L63.515625,66.25 L90.46875,66.25 L90.46875,96.71875 Z M96.71875,59.21875 L63.515625,59.21875 L63.515625,48.28125 L96.71875,48.28125 L96.71875,59.21875 Z" id="Shape" fill="#BDBDBD"></path>
    </g>
</svg>