<?xml version="1.0" encoding="UTF-8"?>
<svg width="120px" height="120px" viewBox="0 0 120 120" version="1.1" xmlns="http://www.w3.org/2000/svg" xmlns:xlink="http://www.w3.org/1999/xlink">
    <!-- Generator: Sketch 57.1 (83088) - https://sketch.com -->
    <title>Icon / Snackbar / Home</title>
    <desc>Created with Sketch.</desc>
    <g id="Icon-/-Snackbar-/-Home" stroke="none" stroke-width="1" fill="none" fill-rule="evenodd">
        <path d="M101.054687,53.1835937 L64.7167969,18.2128906 C62.0410156,15.7910156 57.96875,15.7910156 55.2929687,18.2128906 L18.9453125,53.1835937 C17.5,54.4824219 17.3925781,56.6992187 18.6914062,58.1445312 L18.6914062,58.1445312 C19.9902344,59.5898437 22.2167969,59.6972656 23.6523437,58.3984375 L60,23.4277344 L96.3476562,58.3984375 C97.7929687,59.6972656 100.009766,59.5898437 101.308594,58.1445312 L101.308594,58.1445312 C102.607422,56.6992187 102.5,54.4824219 101.054687,53.1835937 Z M91.3476562,66.1523438 L91.3476562,66.1523438 C89.4042969,66.1523438 87.8320312,67.7246094 87.8320312,69.6679688 L87.8320312,96.71875 L73.8671875,96.71875 L73.8671875,73.28125 C73.8671875,69.3945312 70.7226562,66.25 66.8359375,66.25 L53.1640625,66.25 C49.2773438,66.25 46.1328125,69.3945312 46.1328125,73.28125 L46.1328125,96.71875 L32.1679688,96.71875 L32.1679688,69.6679688 C32.1679688,67.7246094 30.5957031,66.1523438 28.6523438,66.1523438 L28.6523438,66.1523438 C26.7089844,66.1523438 25.1367188,67.7246094 25.1367188,69.6679688 L25.1367188,96.71875 C25.1367188,100.605469 28.28125,103.75 32.1679688,103.75 L87.8320312,103.75 C91.71875,103.75 94.8632812,100.605469 94.8632812,96.71875 L94.8632812,69.6679688 C94.8632812,67.7246094 93.2910156,66.1523438 91.3476562,66.1523438 Z M53.1640625,73.28125 L66.8359375,73.28125 L66.8359375,96.71875 L53.1640625,96.71875 L53.1640625,73.28125 Z" id="Shape" fill="#BDBDBD"></path>
    </g>
</svg>