<?xml version="1.0" encoding="UTF-8"?>
<svg width="60px" height="60px" viewBox="0 0 60 60" version="1.1" xmlns="http://www.w3.org/2000/svg" xmlns:xlink="http://www.w3.org/1999/xlink">
    <!-- Generator: Sketch 49.1 (51147) - http://www.bohemiancoding.com/sketch -->
    <title>JPG</title>
    <desc>Created with Sketch.</desc>
    <defs></defs>
    <g id="Page-1" stroke="none" stroke-width="1" fill="none" fill-rule="evenodd">
        <g id="JPG">
            <rect id="Rectangle-Copy" fill="#5196DB" fill-rule="nonzero" x="0" y="0" width="60" height="60" rx="10"></rect>
            <path d="M42.7337239,22.8066406 L32.7864583,12.7626953 C32.6253255,12.6015625 32.4498698,12.4654948 32.2600911,12.3509114 C32.2099609,12.3222656 32.1598307,12.2936198 32.1061198,12.2685547 C32.0738932,12.250651 32.0380859,12.2363281 32.0058594,12.2220052 C31.6835937,12.078776 31.3291016,12 30.9674479,12 L18.6139323,12 C17.1888021,12 16,13.1529948 16,14.578125 L16,46.0885416 C16,47.5136718 17.1888021,48.6666666 18.6139323,48.6666666 L40.921875,48.6666666 C42.3470052,48.6666666 43.4641927,47.5136718 43.4641927,46.0885416 L43.4641927,24.6220703 C43.4641927,23.9417317 43.2135417,23.290039 42.7337239,22.8066406 Z M32.2923177,15.953125 L39.4824219,23.171875 L32.2923177,23.171875 L32.2923177,15.953125 Z M40.8860677,46.0885416 L18.578125,46.0885416 L18.578125,14.578125 L29.7141927,14.578125 L29.7141927,23.171875 C29.7141927,24.5970052 30.9029948,25.75 32.328125,25.75 L40.8860677,25.75 L40.8860677,46.0885416 Z" id="Shape-Copy" fill="#FFFFFF" fill-rule="nonzero"></path>
            <text font-family="Avenir-Black, Avenir" font-size="9" font-weight="700" fill="#FFFFFF">
                <tspan x="21" y="38">JPG</tspan>
            </text>
        </g>
    </g>
</svg>