<?xml version="1.0" encoding="UTF-8"?>
<svg width="120px" height="120px" viewBox="0 0 120 120" version="1.1" xmlns="http://www.w3.org/2000/svg" xmlns:xlink="http://www.w3.org/1999/xlink">
    <!-- Generator: Sketch 57.1 (83088) - https://sketch.com -->
    <title>Icon / Snackbar / Notifications</title>
    <desc>Created with Sketch.</desc>
    <g id="Icon-/-Snackbar-/-Notifications" stroke="none" stroke-width="1" fill="none" fill-rule="evenodd">
        <path d="M93.984375,91.25 L91.25,91.25 L91.25,47.5 C91.25,31.4257812 79.1210938,18.1933594 63.515625,16.4453125 L63.515625,13.515625 C63.515625,11.5722656 61.9433594,10 60,10 C58.0566406,10 56.484375,11.5722656 56.484375,13.515625 L56.484375,16.4453125 C40.8789062,18.1933594 28.75,31.4257812 28.75,47.5 L28.75,91.25 L26.015625,91.25 C24.0722656,91.25 22.5,92.8222656 22.5,94.765625 C22.5,96.7089844 24.0722656,98.28125 26.015625,98.28125 L52.96875,98.28125 L52.96875,102.96875 C52.96875,106.855469 56.1132812,110 60,110 C63.8867187,110 67.03125,106.855469 67.03125,102.96875 L67.03125,98.28125 L93.984375,98.28125 C95.9277344,98.28125 97.5,96.7089844 97.5,94.765625 C97.5,92.8222656 95.9277344,91.25 93.984375,91.25 Z M84.21875,91.25 L35.78125,91.25 L35.78125,47.5 C35.78125,34.1210938 46.6210938,23.28125 60,23.28125 C73.3789062,23.28125 84.21875,34.1210938 84.21875,47.5 L84.21875,91.25 Z" id="Shape" fill="#69C0FF"></path>
    </g>
</svg>