<?xml version="1.0" encoding="UTF-8"?>
<svg width="60px" height="60px" viewBox="0 0 60 60" version="1.1" xmlns="http://www.w3.org/2000/svg" xmlns:xlink="http://www.w3.org/1999/xlink">
    <!-- Generator: Sketch 57.1 (83088) - https://sketch.com -->
    <title>File Type - PDF</title>
    <desc>Created with Sketch.</desc>
    <g id="Components" stroke="none" stroke-width="1" fill="none" fill-rule="evenodd">
        <g id="Component-/-List-/-Docs" transform="translate(-28.000000, 0.000000)">
            <g id="Group-2">
                <g id="File-Type---PDF" transform="translate(28.000000, 0.000000)">
                    <rect id="Rectangle" fill="#FFC069" x="0" y="0" width="60" height="60" rx="10"></rect>
                    <g id="Group" transform="translate(8.000000, 8.000000)" fill="#FFFFFF">
                        <g id="Icon-/-File-Type-/-PDF" transform="translate(0.400000, 0.000000)">
                            <path d="M35.0195312,14.4733073 L25.0722656,4.42936198 C24.9111328,4.26822917 24.7356771,4.13216146 24.5458984,4.01757812 C24.4957682,3.98893229 24.445638,3.96028646 24.3919271,3.93522135 C24.3597005,3.91731771 24.3238932,3.90299479 24.2916667,3.88867188 C23.969401,3.74544271 23.6149089,3.66666667 23.2532552,3.66666667 L10.8997396,3.66666667 C9.47460938,3.66666667 8.28580729,4.81966146 8.28580729,6.24479167 L8.28580729,37.7552083 C8.28580729,39.1803385 9.47460938,40.3333333 10.8997396,40.3333333 L33.2076823,40.3333333 C34.6328125,40.3333333 35.75,39.1803385 35.75,37.7552083 L35.75,16.288737 C35.75,15.6083984 35.499349,14.9567057 35.0195312,14.4733073 Z M24.578125,7.61979167 L31.7682292,14.8385417 L24.578125,14.8385417 L24.578125,7.61979167 Z M33.171875,37.7552083 L10.8639323,37.7552083 L10.8639323,6.24479167 L22,6.24479167 L22,14.8385417 C22,16.2636719 23.1888021,17.4166667 24.6139323,17.4166667 L33.171875,17.4166667 L33.171875,37.7552083 Z M15.6155599,24.2916667 L13.2272135,24.2916667 L13.2272135,31.1666667 L14.874349,31.1666667 L14.874349,28.875 L15.6656901,28.875 C17.1123047,28.875 18.3727214,28.1516927 18.3727214,26.5224609 C18.3691406,24.828776 17.1302083,24.2916667 15.6155599,24.2916667 L15.6155599,24.2916667 Z M15.5833333,27.5859375 L14.874349,27.5859375 L14.874349,25.5807292 L15.5367839,25.5807292 C16.3317057,25.5807292 16.7721354,25.8313802 16.7721354,26.5260417 C16.7721354,27.195638 16.3854167,27.5859375 15.5833333,27.5859375 Z M21.5166016,24.2916667 L19.5292969,24.2916667 L19.5292969,31.1666667 L21.6097005,31.1666667 C23.6077474,31.1666667 24.9899089,30.078125 24.9899089,27.6933594 C24.9899089,25.3085938 23.6077474,24.2916667 21.5166016,24.2916667 Z M21.4127604,29.8417969 L21.2122396,29.8417969 L21.2122396,25.6165365 L21.4127604,25.6165365 C22.5192057,25.6165365 23.2998047,26.0748698 23.2998047,27.7041016 C23.2998047,29.3333333 22.5192057,29.8417969 21.4127604,29.8417969 Z M30.6295573,25.6523438 L30.6295573,24.2916667 L26.2610677,24.2916667 L26.2610677,31.1666667 L27.9082031,31.1666667 L27.9082031,28.5527344 L30.2356771,28.5527344 L30.2356771,27.1920573 L27.9082031,27.1920573 L27.9082031,25.6523438 L30.6295573,25.6523438 Z" id="Shape"></path>
                        </g>
                    </g>
                </g>
            </g>
        </g>
    </g>
</svg>