<?xml version="1.0" encoding="UTF-8"?>
<svg width="120px" height="120px" viewBox="0 0 120 120" version="1.1" xmlns="http://www.w3.org/2000/svg" xmlns:xlink="http://www.w3.org/1999/xlink">
    <!-- Generator: Sketch 57.1 (83088) - https://sketch.com -->
    <title>Icon / Snackbar / Profile</title>
    <desc>Created with Sketch.</desc>
    <g id="Icon-/-Snackbar-/-Profile" stroke="none" stroke-width="1" fill="none" fill-rule="evenodd">
        <path d="M90.0195312,87.5390625 C88.3789062,83.6621094 86.0253906,80.1757813 83.0371094,77.1875 C80.0488281,74.1992188 76.5625,71.8457031 72.6855469,70.2050781 C71.3671875,69.6484375 70.0097656,69.1796875 68.6425781,68.7988281 C72.5097656,67.4902344 76.0546875,65.3027344 79.0234375,62.3339844 C84.1015625,57.2558594 86.9042969,50.4980469 86.9042969,43.3203125 C86.9042969,36.1425781 84.1113281,29.3847656 79.0234375,24.3066406 C73.9453125,19.2285156 67.1875,16.4257812 60.0097656,16.4257812 C52.8320312,16.4257812 46.0742187,19.21875 40.9960937,24.3066406 C35.9179687,29.3847656 33.1152344,36.1425781 33.1152344,43.3203125 C33.1152344,50.4980469 35.9082031,57.2558594 40.9960937,62.3339844 C43.9648437,65.3027344 47.5097656,67.4902344 51.3769531,68.7988281 C50.0097656,69.1796875 48.6523438,69.6386719 47.3339844,70.2050781 C43.4570312,71.8457031 39.9707031,74.1992188 36.9824219,77.1875 C33.9941406,80.1757813 31.640625,83.6621094 30,87.5390625 C28.3007812,91.5625 27.4414062,95.8203125 27.4414062,100.224609 C27.4414062,102.167969 29.0136719,103.740234 30.9570312,103.740234 C32.9003906,103.740234 34.4726562,102.167969 34.4726562,100.224609 C34.4726562,93.3984375 37.1289062,86.9824219 41.953125,82.1582031 C46.7773437,77.3339844 53.1933594,74.6777344 60.0195312,74.6777344 C66.8457031,74.6777344 73.2617188,77.3339844 78.0859375,82.1582031 C82.9101562,86.9824219 85.5664062,93.3984375 85.5664062,100.224609 C85.5664062,102.167969 87.1386719,103.740234 89.0820312,103.740234 C91.0253906,103.740234 92.5976562,102.167969 92.5976562,100.224609 C92.578125,95.8203125 91.71875,91.5625 90.0195312,87.5390625 Z M40.1367188,43.3203125 C40.1367188,32.3632812 49.0527344,23.4570312 60,23.4570312 C70.9472656,23.4570312 79.8632812,32.3632812 79.8632812,43.3203125 C79.8632812,54.2773437 70.9570313,63.1835938 60,63.1835938 C49.0429688,63.1835938 40.1367188,54.2675781 40.1367188,43.3203125 Z" id="Shape" fill="#69C0FF"></path>
    </g>
</svg>