<?xml version="1.0" encoding="UTF-8"?>
<svg width="19px" height="19px" viewBox="0 0 19 19" version="1.1" xmlns="http://www.w3.org/2000/svg" xmlns:xlink="http://www.w3.org/1999/xlink">
    <!-- Generator: Sketch 57.1 (83088) - https://sketch.com -->
    <title>Icon / General / Search</title>
    <desc>Created with Sketch.</desc>
    <g id="Mobile-App" stroke="none" stroke-width="1" fill="none" fill-rule="evenodd">
        <g id="Events-List---Upcoming" transform="translate(-43.000000, -139.000000)" fill="#BDBDBD">
            <g id="Group-3" transform="translate(28.000000, 128.000000)">
                <g id="Icon-/-General-/-Search" transform="translate(12.000000, 8.000000)">
                    <path d="M20.9615885,19.9654948 L16.9440104,15.9498698 C18.0201823,14.6510417 18.6666667,12.985026 18.6666667,11.1666667 C18.6666667,7.02408854 15.3092448,3.66666667 11.1666667,3.66666667 C7.02408854,3.66666667 3.66666667,7.02408854 3.66666667,11.1666667 C3.66666667,15.3092448 7.02408854,18.6666667 11.1666667,18.6666667 C12.985026,18.6666667 14.6510417,18.0201823 15.9498698,16.9440104 L19.9674479,20.9615885 C20.1041667,21.0983073 20.2838542,21.1666667 20.4654948,21.1666667 C20.6471354,21.1666667 20.8248698,21.0983073 20.9635417,20.9615885 C21.235026,20.6861979 21.235026,20.2408854 20.9615885,19.9654948 Z M13.5377604,16.781901 C12.7877604,17.1002604 11.9908854,17.2604167 11.1666667,17.2604167 C10.3424479,17.2604167 9.54557292,17.1002604 8.79557292,16.781901 C8.07096354,16.4752604 7.41861979,16.0358073 6.85807292,15.4752604 C6.29752604,14.9147135 5.85807292,14.2623698 5.55143229,13.5377604 C5.23307292,12.7877604 5.07291667,11.9908854 5.07291667,11.1666667 C5.07291667,10.3424479 5.23307292,9.54557292 5.55143229,8.79557292 C5.85807292,8.07096354 6.29752604,7.41861979 6.85807292,6.85807292 C7.41861979,6.29752604 8.07096354,5.85807292 8.79557292,5.55143229 C9.54557292,5.23307292 10.3424479,5.07291667 11.1666667,5.07291667 C11.9908854,5.07291667 12.7877604,5.23307292 13.5377604,5.55143229 C14.2623698,5.85807292 14.9147135,6.29752604 15.4752604,6.85807292 C16.0358073,7.41861979 16.4752604,8.07096354 16.781901,8.79557292 C17.1002604,9.54557292 17.2604167,10.3424479 17.2604167,11.1666667 C17.2604167,11.9908854 17.1002604,12.7877604 16.781901,13.5377604 C16.4752604,14.2623698 16.0358073,14.9147135 15.4752604,15.4752604 C14.9147135,16.0358073 14.2643229,16.4752604 13.5377604,16.781901 Z" id="Shape"></path>
                </g>
            </g>
        </g>
    </g>
</svg>