<?xml version="1.0" encoding="UTF-8"?>
<svg width="12px" height="12px" viewBox="0 0 12 12" version="1.1" xmlns="http://www.w3.org/2000/svg" xmlns:xlink="http://www.w3.org/1999/xlink">
    <!-- Generator: Sketch 57.1 (83088) - https://sketch.com -->
    <title>Icon / Snackbar / Calendar</title>
    <desc>Created with Sketch.</desc>
    <g id="Page-1" stroke="none" stroke-width="1" fill="none" fill-rule="evenodd">
        <g id="Events-List---Registered" transform="translate(-259.000000, -146.000000)" fill="#BDBDBD">
            <g id="Icon-/-Snackbar-/-Calendar" transform="translate(257.000000, 144.000000)">
                <path d="M12.8958333,3 L11.3333333,3 L11.3333333,2.63541667 C11.3333333,2.37630208 11.1236979,2.16666667 10.8645833,2.16666667 C10.6054688,2.16666667 10.3958333,2.37630208 10.3958333,2.63541667 L10.3958333,3 L5.60416667,3 L5.60416667,2.63541667 C5.60416667,2.37630208 5.39453125,2.16666667 5.13541667,2.16666667 C4.87630208,2.16666667 4.66666667,2.37630208 4.66666667,2.63541667 L4.66666667,3 L3.10416667,3 C2.5859375,3 2.16666667,3.41927083 2.16666667,3.9375 L2.16666667,12.8958333 C2.16666667,13.4140625 2.5859375,13.8333333 3.10416667,13.8333333 L12.8958333,13.8333333 C13.4140625,13.8333333 13.8333333,13.4127604 13.8333333,12.8958333 L13.8333333,3.9375 C13.8333333,3.41927083 13.4140625,3 12.8958333,3 Z M3.10416667,3.9375 L4.66666667,3.9375 L4.66666667,4.19791667 C4.66666667,4.45703125 4.87630208,4.66666667 5.13541667,4.66666667 C5.39453125,4.66666667 5.60416667,4.45703125 5.60416667,4.19791667 L5.60416667,3.9375 L10.3958333,3.9375 L10.3958333,4.19791667 C10.3958333,4.45703125 10.6054688,4.66666667 10.8645833,4.66666667 C11.1236979,4.66666667 11.3333333,4.45703125 11.3333333,4.19791667 L11.3333333,3.9375 L12.8958333,3.9375 L12.8958333,5.39583333 L3.10416667,5.39583333 L3.10416667,3.9375 Z M12.8958333,12.8958333 L3.10416667,12.8958333 L3.10416667,6.33333333 L12.8958333,6.33333333 L12.8958333,12.8958333 Z M5.08333333,8 L5.91666667,8 C6.14713542,8 6.33333333,8.18619792 6.33333333,8.41666667 C6.33333333,8.64713542 6.14713542,8.83333333 5.91666667,8.83333333 L5.08333333,8.83333333 C4.85286458,8.83333333 4.66666667,8.64713542 4.66666667,8.41666667 C4.66666667,8.18619792 4.85286458,8 5.08333333,8 Z M7.58333333,8 L8.41666667,8 C8.64713542,8 8.83333333,8.18619792 8.83333333,8.41666667 C8.83333333,8.64713542 8.64713542,8.83333333 8.41666667,8.83333333 L7.58333333,8.83333333 C7.35286458,8.83333333 7.16666667,8.64713542 7.16666667,8.41666667 C7.16666667,8.18619792 7.35286458,8 7.58333333,8 Z M10.0833333,8 L10.9166667,8 C11.1471354,8 11.3333333,8.18619792 11.3333333,8.41666667 C11.3333333,8.64713542 11.1471354,8.83333333 10.9166667,8.83333333 L10.0833333,8.83333333 C9.85286458,8.83333333 9.66666667,8.64713542 9.66666667,8.41666667 C9.66666667,8.18619792 9.85286458,8 10.0833333,8 Z M5.08333333,10.5260417 L5.91666667,10.5260417 C6.14713542,10.5260417 6.33333333,10.7122396 6.33333333,10.9427083 C6.33333333,11.1731771 6.14713542,11.359375 5.91666667,11.359375 L5.08333333,11.359375 C4.85286458,11.359375 4.66666667,11.1731771 4.66666667,10.9427083 C4.66666667,10.7122396 4.85286458,10.5260417 5.08333333,10.5260417 Z M7.58333333,10.5260417 L8.41666667,10.5260417 C8.64713542,10.5260417 8.83333333,10.7122396 8.83333333,10.9427083 C8.83333333,11.1731771 8.64713542,11.359375 8.41666667,11.359375 L7.58333333,11.359375 C7.35286458,11.359375 7.16666667,11.1731771 7.16666667,10.9427083 C7.16666667,10.7122396 7.35286458,10.5260417 7.58333333,10.5260417 Z" id="Shape"></path>
            </g>
        </g>
    </g>
</svg>