<?xml version="1.0" encoding="UTF-8"?>
<svg width="37px" height="32px" viewBox="0 0 37 32" version="1.1" xmlns="http://www.w3.org/2000/svg" xmlns:xlink="http://www.w3.org/1999/xlink">
    <!-- Generator: Sketch 57.1 (83088) - https://sketch.com -->
    <title>Icon / Diamond</title>
    <desc>Created with Sketch.</desc>
    <g id="Mobile-App" stroke="none" stroke-width="1" fill="none" fill-rule="evenodd">
        <g id="Profile---Premium" transform="translate(-28.000000, -233.000000)" fill-rule="nonzero">
            <g id="Group-4" transform="translate(0.000000, 207.500000)">
                <g id="Group" transform="translate(28.000000, 20.500000)">
                    <g id="Icon-/-Diamond" transform="translate(0.000000, 5.000000)">
                        <path d="M36.9999916,8.92699552 C36.9970371,9.63587444 36.7743867,10.3411659 36.3385527,10.9230493 L36.3277129,10.9373991 L21.0095684,30.6963229 C20.7059805,31.0988341 20.325791,31.4159641 19.8979063,31.6326457 C19.7244688,31.7201794 19.5422871,31.7912108 19.3551191,31.8450224 C19.0804375,31.9232287 18.793543,31.9641256 18.5000723,31.9641256 C18.2087695,31.9641256 17.924043,31.9239462 17.6515293,31.8464574 C16.9995488,31.6620628 16.4184609,31.264574 15.9905762,30.6963229 L0.661447266,10.9230493 C0.225613281,10.3411659 0.00368554687,9.63587444 -1.93304118e-05,8.92699552 C-0.00426367188,8.33434978 0.145326172,7.73955157 0.451804687,7.21363229 L3.35673828,1.62511211 L3.37263672,1.59784753 C3.95596484,0.619910314 4.96782813,0.0358744395 6.07949023,0.0358744395 L30.9205098,0.0358744395 C32.0321719,0.0358744395 33.0441074,0.619910314 33.6273633,1.59784753 L33.6577148,1.65237668 L36.5474727,7.21363229 C36.8539512,7.73955157 37.003541,8.33434978 36.9999916,8.92699552 Z" id="Path" fill="#E1F2FF"></path>
                        <path d="M36.9999916,8.92699552 C36.9970371,9.63587444 36.7743867,10.3411659 36.3385527,10.9230493 L36.3277129,10.9373991 L21.0095684,30.6963229 C20.7059805,31.0988341 20.325791,31.4159641 19.8979063,31.6326457 C19.7244688,31.7201794 19.5422871,31.7912108 19.3551191,31.8450224 C19.0804375,31.9232287 18.793543,31.9641256 18.5000723,31.9641256 L18.5000723,0.0358744395 L30.920582,0.0358744395 C32.0322441,0.0358744395 33.0441797,0.619910314 33.6274355,1.59784753 L33.6577871,1.65237668 L36.5475449,7.21363229 C36.8539512,7.73955157 37.003541,8.33434978 36.9999916,8.92699552 Z" id="Path" fill="#A9DBFF"></path>
                        <path d="M36.9999916,8.92699552 L-1.93304118e-05,8.92699552 C-0.00426367188,8.33434978 0.145326172,7.73955157 0.451804687,7.21363229 L3.35673828,1.62511211 L3.37263672,1.59784753 C3.95596484,0.619910314 4.96782813,0.0358744395 6.07949023,0.0358744395 L30.9205098,0.0358744395 C32.0321719,0.0358744395 33.0441074,0.619910314 33.6273633,1.59784753 L33.6577148,1.65237668 L36.5474727,7.21363229 C36.8539512,7.73955157 37.003541,8.33434978 36.9999916,8.92699552 Z" id="Path" fill="#A9DBFF"></path>
                        <path d="M37,8.92699552 L18.5,8.92699552 L18.5,0.0358744395 L30.9205098,0.0358744395 C32.0321719,0.0358744395 33.0441074,0.619910314 33.6273633,1.59784753 L33.6577148,1.65237668 L36.5474727,7.21363229 C36.8539512,7.73955157 37.003541,8.33434978 37,8.92699552 Z" id="Path" fill="#69C0FF"></path>
                        <path d="M26.7398711,8.92699552 L19.3550469,31.8450224 C19.0803652,31.9232287 18.7934707,31.9641256 18.5,31.9641256 C18.2086973,31.9641256 17.9239707,31.9239462 17.651457,31.8464574 L10.3324668,8.92699552 L18.5,0.0358744395 L26.7398711,8.92699552 Z" id="Path" fill="#A9DBFF"></path>
                        <path d="M26.7398711,8.92699552 L19.3550469,31.8450224 C19.0803652,31.9232287 18.7934707,31.9641256 18.5,31.9641256 L18.5,0.0358744395 L26.7398711,8.92699552 Z" id="Path" fill="#69C0FF"></path>
                        <polygon id="Path" fill="#E1F2FF" points="26.7398711 8.92699552 10.3324668 8.92699552 18.5 0.0358744395"></polygon>
                        <polygon id="Path" fill="#A9DBFF" points="26.7398711 8.92699552 18.5 8.92699552 18.5 0.0358744395"></polygon>
                    </g>
                </g>
            </g>
        </g>
    </g>
</svg>