<?xml version="1.0" encoding="UTF-8"?>
<svg width="16px" height="14px" viewBox="0 0 16 14" version="1.1" xmlns="http://www.w3.org/2000/svg" xmlns:xlink="http://www.w3.org/1999/xlink">
    <!-- Generator: Sketch 57.1 (83088) - https://sketch.com -->
    <title>Icon / General / Notice Copy</title>
    <desc>Created with Sketch.</desc>
    <g id="Mobile-App" stroke="none" stroke-width="1" fill="none" fill-rule="evenodd">
        <g id="Event---Details" transform="translate(-310.000000, -890.000000)" fill="#BDBDBD">
            <g id="Group-13" transform="translate(28.000000, 833.000000)">
                <g id="Group-12" transform="translate(20.000000, 51.000000)">
                    <g id="Icon-/-General-/-Email" transform="translate(260.000000, 3.000000)">
                        <path d="M16.1344401,3.7483724 L3.87695312,3.7483724 C3.22916667,3.7483724 2.70507812,4.27246094 2.70507812,4.9202474 L2.70507812,15.1074219 C2.70507812,15.7552083 3.22916667,16.2792969 3.87695312,16.2792969 L16.1344401,16.2792969 C16.7822266,16.2792969 17.3063151,15.7552083 17.3063151,15.1074219 L17.3063151,4.9202474 C17.3063151,4.27408854 16.780599,3.7483724 16.1344401,3.7483724 Z M14.8779297,4.9202474 L10.5143229,8.56770833 L10.4882812,8.58886719 L10.4654948,8.61328125 C10.3548177,8.73046875 10.2050781,8.79394531 10.0439453,8.79557292 C10.0423177,8.79557292 10.0423177,8.79557292 10.0406901,8.79557292 C9.8811849,8.79557292 9.73144531,8.73209635 9.62076823,8.61816406 L9.59798177,8.5953776 L5.14160156,4.9202474 L14.8779297,4.9202474 Z M16.1344401,15.1074219 L3.87695312,15.1074219 C3.87695312,15.1074219 3.87695312,15.1074219 3.87695312,15.1074219 L3.87695312,5.39713542 L8.80533854,9.45800781 C9.13736979,9.78678385 9.57356771,9.96744792 10.0423177,9.96744792 C10.0455729,9.96744792 10.0472005,9.96744792 10.0504557,9.96744792 C10.5208333,9.96582031 10.9602865,9.78190104 11.2906901,9.44824219 L16.1360677,5.39876302 L16.1360677,15.1074219 C16.1344401,15.1074219 16.1344401,15.1074219 16.1344401,15.1074219 Z" id="Shape"></path>
                    </g>
                </g>
            </g>
        </g>
    </g>
</svg>