<?xml version="1.0" encoding="UTF-8"?>
<svg width="120px" height="120px" viewBox="0 0 120 120" version="1.1" xmlns="http://www.w3.org/2000/svg" xmlns:xlink="http://www.w3.org/1999/xlink">
    <!-- Generator: Sketch 57.1 (83088) - https://sketch.com -->
    <title>Icon / General / Emote Eh (On)</title>
    <desc>Created with Sketch.</desc>
    <g id="Icon-/-General-/-Emote-Eh-(On)" stroke="none" stroke-width="1" fill="none" fill-rule="evenodd">
        <path d="M60,10 C32.3828125,10 10,32.3828125 10,60 C10,87.6171875 32.3828125,110 60,110 C87.6171875,110 110,87.6171875 110,60 C110,32.3828125 87.6171875,10 60,10 Z M34.8242188,53.203125 C31.5917969,53.203125 28.9648438,50.5761719 28.9648438,47.34375 C28.9648438,44.1113281 31.5917969,41.484375 34.8242188,41.484375 C38.0566406,41.484375 40.6835938,44.1113281 40.6835938,47.34375 C40.6835938,50.5761719 38.0566406,53.203125 34.8242188,53.203125 Z M72.7734375,85.9570313 L46.9921875,85.9570313 C45.0488281,85.9570313 43.4765625,84.3847656 43.4765625,82.4414063 C43.4765625,80.4980469 45.0488281,78.9257813 46.9921875,78.9257813 L72.7734375,78.9257813 C74.7167969,78.9257813 76.2890625,80.4980469 76.2890625,82.4414063 C76.2890625,84.3847656 74.7167969,85.9570313 72.7734375,85.9570313 Z M85.1464844,53.203125 C81.9140625,53.203125 79.2871094,50.5761719 79.2871094,47.34375 C79.2871094,44.1113281 81.9140625,41.484375 85.1464844,41.484375 C88.3789062,41.484375 91.0058594,44.1113281 91.0058594,47.34375 C91.0058594,50.5761719 88.3789062,53.203125 85.1464844,53.203125 Z" id="Shape" fill="#69C0FF"></path>
    </g>
</svg>