<?xml version="1.0" encoding="UTF-8"?>
<svg width="18px" height="20px" viewBox="0 0 18 20" version="1.1" xmlns="http://www.w3.org/2000/svg" xmlns:xlink="http://www.w3.org/1999/xlink">
    <!-- Generator: Sketch 57.1 (83088) - https://sketch.com -->
    <title>Icon / Snackbar / Calendar Copy</title>
    <desc>Created with Sketch.</desc>
    <defs>
        <filter x="-3.8%" y="-4.6%" width="107.5%" height="109.2%" filterUnits="objectBoundingBox" id="filter-1">
            <feOffset dx="0" dy="2" in="SourceAlpha" result="shadowOffsetOuter1"></feOffset>
            <feGaussianBlur stdDeviation="2" in="shadowOffsetOuter1" result="shadowBlurOuter1"></feGaussianBlur>
            <feColorMatrix values="0 0 0 0 0.0667951663   0 0 0 0 0.385497358   0 0 0 0 0.616281703  0 0 0 0.16 0" type="matrix" in="shadowBlurOuter1" result="shadowMatrixOuter1"></feColorMatrix>
            <feMerge>
                <feMergeNode in="shadowMatrixOuter1"></feMergeNode>
                <feMergeNode in="SourceGraphic"></feMergeNode>
            </feMerge>
        </filter>
    </defs>
    <g id="Page-1" stroke="none" stroke-width="1" fill="none" fill-rule="evenodd">
        <g id="Events-List---Registered" transform="translate(-47.000000, -205.000000)" fill="#BDBDBD">
            <g id="Group-Copy-2" filter="url(#filter-1)" transform="translate(28.000000, 128.000000)">
                <g id="Group" transform="translate(20.000000, 77.000000)">
                    <g id="Icon-/-Snackbar-/-Location">
                        <path d="M8,4.29817708 C7.29817708,4.29817708 6.63802083,4.57161458 6.140625,5.06770833 C5.64453125,5.56380208 5.37109375,6.22395833 5.37109375,6.92708333 C5.37109375,7.63020833 5.64453125,8.2890625 6.140625,8.78645833 C6.63671875,9.28255208 7.296875,9.55598958 8,9.55598958 C8.703125,9.55598958 9.36197917,9.28255208 9.859375,8.78645833 C10.3554688,8.29036458 10.6289062,7.63020833 10.6289062,6.92708333 C10.6289062,6.22395833 10.3554688,5.56510417 9.859375,5.06770833 C9.36197917,4.57161458 8.70182292,4.29817708 8,4.29817708 Z M8,8.62630208 C7.0625,8.62630208 6.30078125,7.86458333 6.30078125,6.92708333 C6.30078125,5.98958333 7.0625,5.22786458 8,5.22786458 C8.9375,5.22786458 9.69921875,5.98958333 9.69921875,6.92708333 C9.69921875,7.86458333 8.9375,8.62630208 8,8.62630208 Z M12.6692708,4.84375 C12.4049479,4.31380208 12.0299479,3.83723958 11.5533854,3.42578125 C11.0807292,3.01822917 10.5364583,2.69791667 9.93359375,2.47265625 C9.3125,2.24088542 8.66276042,2.12369792 8.00130208,2.12369792 L7.99869792,2.12369792 C7.33723958,2.12369792 6.6875,2.24088542 6.06640625,2.47265625 C5.46354167,2.69791667 4.91927083,3.01822917 4.44661458,3.42578125 C3.97005208,3.83723958 3.59375,4.31510417 3.33072917,4.84375 C3.0546875,5.3984375 2.9140625,5.98567708 2.9140625,6.58723958 C2.9140625,7.42447917 3.11979167,8.28515625 3.52604167,9.14583333 C3.86197917,9.85807292 4.33723958,10.5768229 4.94010417,11.2825521 C6.01822917,12.5455729 7.23177083,13.4492188 7.703125,13.7786458 C7.79036458,13.8398438 7.89322917,13.8723958 8,13.8723958 C8.10546875,13.8723958 8.20833333,13.8398438 8.296875,13.7786458 C8.76822917,13.4492188 9.98307292,12.5455729 11.0598958,11.2825521 C11.6614583,10.5768229 12.1380208,9.85807292 12.4739583,9.14583333 C12.8802083,8.28515625 13.0859375,7.42317708 13.0859375,6.58723958 C13.0859375,5.984375 12.9453125,5.3984375 12.6692708,4.84375 Z M12.1549479,6.58854167 C12.1549479,7.28776042 11.9791667,8.015625 11.6315104,8.75130208 C11.3333333,9.38671875 10.9023438,10.0351563 10.3528646,10.6796875 C9.49479167,11.6861979 8.53385417,12.4557292 8,12.8476563 C7.46614583,12.4544271 6.50520833,11.6861979 5.64713542,10.6796875 C5.09765625,10.0351563 4.66666667,9.38541667 4.3671875,8.75 C4.01953125,8.01432292 3.84375,7.28645833 3.84375,6.58723958 C3.84375,6.12890625 3.95052083,5.68098958 4.16276042,5.2578125 C4.37239583,4.83854167 4.671875,4.45833333 5.0546875,4.12760417 C5.44270833,3.79166667 5.89322917,3.52734375 6.390625,3.34114583 C6.90885417,3.1484375 7.45052083,3.05078125 7.99869792,3.05078125 L8.00130208,3.05078125 C8.55078125,3.05078125 9.09244792,3.1484375 9.60807292,3.34114583 C10.1067708,3.52734375 10.5559896,3.79166667 10.9453125,4.12760417 C11.3294271,4.45833333 11.6289063,4.83854167 11.8359375,5.2578125 C12.0481771,5.68489583 12.1549479,6.13151042 12.1549479,6.58854167 Z" id="Shape"></path>
                    </g>
                </g>
            </g>
        </g>
    </g>
</svg>