<?xml version="1.0" encoding="UTF-8"?>
<svg width="16px" height="16px" viewBox="0 0 16 16" version="1.1" xmlns="http://www.w3.org/2000/svg" xmlns:xlink="http://www.w3.org/1999/xlink">
    <!-- Generator: Sketch 57.1 (83088) - https://sketch.com -->
    <title>Icon / General / Notice</title>
    <desc>Created with Sketch.</desc>
    <g id="Mobile-App" stroke="none" stroke-width="1" fill="none" fill-rule="evenodd">
        <g id="Event---Details" transform="translate(-310.000000, -932.000000)" fill="#BDBDBD">
            <g id="Group-13" transform="translate(28.000000, 833.000000)">
                <g id="Group-12" transform="translate(20.000000, 51.000000)">
                    <g id="Icon-/-General-/-Notice" transform="translate(260.000000, 46.000000)">
                        <path d="M3.88020833,2.70833333 L16.1360677,2.70833333 C16.7391493,2.70833333 17.2373119,3.16629051 17.3010532,3.75270255 L17.3079427,3.88020833 L17.3079427,16.1197917 C17.3079427,16.7228733 16.8499855,17.2210359 16.2635735,17.2847772 L16.1360677,17.2916667 L14.7688802,17.2916667 C14.444987,17.2916667 14.1829427,17.0296224 14.1829427,16.7057292 C14.1829427,16.4142253 14.3951986,16.172819 14.6737679,16.1274528 L14.7688802,16.1197917 L16.1360677,16.1197917 L16.1360677,3.88020833 L3.88020833,3.88020833 L3.88020833,16.1197917 L8.38867188,16.1197917 C8.7125651,16.1197917 8.97460938,16.3818359 8.97460938,16.7057292 C8.97460938,16.9972331 8.76235352,17.2386393 8.48378418,17.2840055 L8.38867188,17.2916667 L3.88020833,17.2916667 C3.27712674,17.2916667 2.77896412,16.8337095 2.7152228,16.2472975 L2.70833333,16.1197917 L2.70833333,3.88020833 C2.70833333,3.27712674 3.16629051,2.77896412 3.75270255,2.7152228 L3.88020833,2.70833333 L16.1360677,2.70833333 Z M12.9785156,16.1982924 C13.1598053,16.30296 13.2714844,16.4963939 13.2714844,16.7057292 C13.2714844,16.9150645 13.1598053,17.1084983 12.9785156,17.213166 C12.7972259,17.3178336 12.5738678,17.3178336 12.3925781,17.213166 C12.2112884,17.1084983 12.0996094,16.9150645 12.0996094,16.7057292 C12.0996094,16.4963939 12.2112884,16.30296 12.3925781,16.1982924 C12.5738678,16.0936247 12.7972259,16.0936247 12.9785156,16.1982924 Z M12.6855469,7.91666667 C13.0094401,7.91666667 13.2714844,8.17871094 13.2714844,8.50260417 L13.2714844,8.50260417 L13.2714844,14.6223958 C13.2714844,14.9462891 13.0094401,15.2083333 12.6855469,15.2083333 C12.3616536,15.2083333 12.0996094,14.9462891 12.0996094,14.6223958 L12.0996094,14.6223958 L12.0996094,8.50260417 C12.0996094,8.17871094 12.3616536,7.91666667 12.6855469,7.91666667 Z M8.38867188,12.0833333 C8.7125651,12.0833333 8.97460938,12.3453776 8.97460938,12.6692708 C8.97460938,12.9931641 8.7125651,13.2552083 8.38867188,13.2552083 L8.38867188,13.2552083 L5.39388021,13.2552083 C5.06998698,13.2552083 4.80794271,12.9931641 4.80794271,12.6692708 C4.80794271,12.3453776 5.06998698,12.0833333 5.39388021,12.0833333 L5.39388021,12.0833333 Z M8.38867188,8.95833333 C8.7125651,8.95833333 8.97460938,9.2203776 8.97460938,9.54427083 C8.97460938,9.86816406 8.7125651,10.1302083 8.38867188,10.1302083 L8.38867188,10.1302083 L5.39388021,10.1302083 C5.06998698,10.1302083 4.80794271,9.86816406 4.80794271,9.54427083 C4.80794271,9.2203776 5.06998698,8.95833333 5.39388021,8.95833333 L5.39388021,8.95833333 Z M10.4720052,5.83333333 C10.7958984,5.83333333 11.0579427,6.0953776 11.0579427,6.41927083 C11.0579427,6.74316406 10.7958984,7.00520833 10.4720052,7.00520833 L10.4720052,7.00520833 L5.39388021,7.00520833 C5.06998698,7.00520833 4.80794271,6.74316406 4.80794271,6.41927083 C4.80794271,6.0953776 5.06998698,5.83333333 5.39388021,5.83333333 L5.39388021,5.83333333 Z" id="Combined-Shape"></path>
                    </g>
                </g>
            </g>
        </g>
    </g>
</svg>