<?xml version="1.0" encoding="UTF-8"?>
<svg width="120px" height="120px" viewBox="0 0 120 120" version="1.1" xmlns="http://www.w3.org/2000/svg" xmlns:xlink="http://www.w3.org/1999/xlink">
    <!-- Generator: Sketch 57.1 (83088) - https://sketch.com -->
    <title>Icon / General / Pencil</title>
    <desc>Created with Sketch.</desc>
    <g id="Icon-/-General-/-Pencil" stroke="none" stroke-width="1" fill="none" fill-rule="evenodd">
        <path d="M100.234375,96.71875 L19.765625,96.71875 C17.8222656,96.71875 16.25,98.2910156 16.25,100.234375 C16.25,102.177734 17.8222656,103.75 19.765625,103.75 L100.234375,103.75 C102.177734,103.75 103.75,102.177734 103.75,100.234375 C103.75,98.2910156 102.177734,96.71875 100.234375,96.71875 Z M38.90625,85.1953125 L61.9042969,75.4589844 C62.2753906,75.3027344 62.6074219,75.078125 62.9003906,74.7949219 L101.689453,36.0058594 C104.433594,33.2617188 104.453125,28.7890625 101.708984,26.0449219 L93.9648438,18.3007813 C91.2207031,15.5566406 86.7480469,15.5761719 84.0039063,18.3203125 L45.2148438,57.109375 C44.9316406,57.3925781 44.7070313,57.734375 44.5507813,58.1054688 L34.8046875,81.09375 C34.2578125,82.3828125 34.6386719,83.6816406 35.46875,84.5214844 C36.2988281,85.3613281 37.6074219,85.7421875 38.90625,85.1953125 Z M88.9746094,23.2910156 L88.9941406,23.2714844 L96.7285156,31.0058594 L96.7089844,31.0253906 L90.6542969,37.0800781 L82.9199219,29.3457031 L88.9746094,23.2910156 Z M50.7226563,61.5429688 L77.9492188,34.3164063 L85.6835938,42.0507813 L58.4570313,69.2773438 L45.0390625,74.9609375 L50.7226563,61.5429688 Z" id="Shape" fill="#BDBDBD"></path>
    </g>
</svg>