<?xml version="1.0" encoding="UTF-8"?>
<svg width="112px" height="112px" viewBox="0 0 112 112" version="1.1" xmlns="http://www.w3.org/2000/svg" xmlns:xlink="http://www.w3.org/1999/xlink">
    <!-- Generator: Sketch 57.1 (83088) - https://sketch.com -->
    <title>doctor</title>
    <desc>Created with Sketch.</desc>
    <defs>
        <circle id="path-1" cx="54" cy="54" r="54"></circle>
    </defs>
    <g id="Mobile-App" stroke="none" stroke-width="1" fill="none" fill-rule="evenodd">
        <g id="Profile---Standard" transform="translate(-29.000000, -74.000000)">
            <g id="Group-2" transform="translate(31.000000, 76.000000)">
                <g id="doctor">
                    <mask id="mask-2" fill="white">
                        <use xlink:href="#path-1"></use>
                    </mask>
                    <circle stroke="#E1F2FF" stroke-width="2" cx="54" cy="54" r="55"></circle>
                    <g mask="url(#mask-2)">
                        <g transform="translate(21.000000, 16.000000)">
                            <path d="M66.7255859,1.13613281 C65.4410156,-0.239257813 63.7146484,-0.375585938 62.2214844,0.779882812 C59.7980469,2.65449219 52.4238281,8.35839844 41.0125,4.65117187 C31.8019531,1.65859375 24.6009766,1.01308594 18.9974609,2.6765625 C13.684375,4.25429687 9.85253906,7.98203125 7.6015625,13.7617188 C1.93789063,17.5914063 -0.625585937,23.7136719 0.183984375,31.5015625 C0.814648438,37.5699219 3.35722656,43.4056641 5.34257813,46.5589844 C5.77382813,47.2435547 6.678125,47.4488281 7.36269531,47.0181641 C7.80449219,46.7400391 8.0453125,46.2646484 8.04570313,45.7785156 L55.2265625,45.7785156 C55.2269531,46.2646484 55.4677734,46.7400391 55.9095703,47.0181641 C56.1519531,47.1708984 56.421875,47.2435547 56.6886719,47.2435547 C57.1751953,47.2435547 57.6511719,47.0011719 57.9294922,46.5589844 C60.0427734,43.2023438 62.9990234,35.0763672 63.1339844,27.2535156 C67.5210938,22.0613281 68.6828125,15.8708984 68.9830078,12.5910156 C69.4416016,7.59101562 68.5550781,3.09492187 66.7255859,1.13613281 Z" id="Path" fill="#29495D" fill-rule="nonzero"></path>
                            <path d="M66.7255859,1.13613281 C65.4410156,-0.239257813 63.7146484,-0.375585938 62.2214844,0.779882812 C61.8519531,1.065625 61.3667969,1.44082031 60.7701172,1.8578125 C62.2166016,4.07246094 62.8787109,8.13046875 62.4705078,12.5910156 C62.1703125,15.8710938 61.0083984,22.0613281 56.6214844,27.2535156 C56.4958984,34.5255859 53.9326172,42.0572266 51.8748047,45.7785156 L55.2271484,45.7785156 C55.2275391,46.2646484 55.4683594,46.7400391 55.9101563,47.0181641 C56.1525391,47.1708984 56.4224609,47.2435547 56.6892578,47.2435547 C57.1757812,47.2435547 57.6517578,47.0011719 57.9300781,46.5589844 C60.0433594,43.2023438 62.9996094,35.0763672 63.1345703,27.2535156 C67.5216797,22.0613281 68.6833984,15.8708984 68.9835937,12.5910156 C69.4416016,7.59101562 68.5550781,3.09492187 66.7255859,1.13613281 Z" id="Path" fill="#1B3546" fill-rule="nonzero"></path>
                            <path d="M42.5052734,69.5210937 L21.8308594,69.5210937 C12.9072266,69.5210937 5.64746094,76.7810547 5.64746094,85.7046875 L5.64746094,98.5351562 C5.64746094,99.3441406 6.303125,100 7.11230469,100 L57.2242187,100 C58.0333984,100 58.6890625,99.3441406 58.6890625,98.5351562 L58.6890625,85.7044922 C58.6890625,76.7808594 51.4289062,69.5210937 42.5052734,69.5210937 Z" id="Path" fill="#F0EEEE" fill-rule="nonzero"></path>
                            <path d="M42.5052734,69.5210937 L37.5738281,69.5210937 C46.4974609,69.5210937 53.7572266,76.7810547 53.7572266,85.7046875 L53.7572266,98.5351562 C53.7572266,99.3441406 53.1015625,100 52.2923828,100 L57.2238281,100 C58.0330078,100 58.6886719,99.3441406 58.6886719,98.5351562 L58.6886719,85.7044922 C58.6886719,76.7808594 51.4289062,69.5210937 42.5052734,69.5210937 Z" id="Path" fill="#D9D4D4" fill-rule="nonzero"></path>
                            <rect id="Rectangle" fill="#69C0FF" fill-rule="nonzero" x="23.9466797" y="70.9847656" width="16.4429688" height="29.0150391"></rect>
                            <g id="Group" stroke-width="1" fill="none" fill-rule="evenodd" transform="translate(23.828125, 70.898438)">
                                <polygon id="Path" fill="#A9DBFF" fill-rule="nonzero" points="8.34003906 1.53964844 8.34003906 8.73378906 16.5617188 14.4535156 16.5617188 0.087109375"></polygon>
                                <polygon id="Path" fill="#A9DBFF" fill-rule="nonzero" points="0.118359375 14.4535156 8.34003906 8.73378906 8.34003906 1.53964844 0.118359375 0.087109375"></polygon>
                            </g>
                            <path d="M48.9070313,86.5726563 C48.0978516,86.5726563 47.4421875,85.9167969 47.4421875,85.1078125 L47.4421875,78.0439453 C47.4421875,69.8863281 40.8056641,63.2496094 32.6480469,63.2496094 C24.4904297,63.2496094 17.8537109,69.8861328 17.8537109,78.0439453 L17.8537109,84.1273438 C17.8537109,84.9363281 17.1980469,85.5921875 16.3888672,85.5921875 C15.5796875,85.5921875 14.9240234,84.9363281 14.9240234,84.1273438 L14.9240234,78.0439453 C14.9240234,68.2708984 22.8748047,60.3199219 32.6478516,60.3199219 C42.4208984,60.3199219 50.371875,68.2708984 50.371875,78.0439453 L50.371875,85.1078125 C50.371875,85.9167969 49.7160156,86.5726563 48.9070313,86.5726563 Z" id="Path" fill="#19303F" fill-rule="nonzero"></path>
                            <g id="Group" stroke-width="1" fill="none" fill-rule="evenodd" transform="translate(1.171875, 43.554688)">
                                <path d="M22.7746094,8.73710937 L22.7746094,26.4453125 C22.7746094,30.9859375 26.4556641,34.6669922 30.9962891,34.6669922 L30.9962891,34.6669922 C35.5371094,34.6669922 39.2179688,30.9859375 39.2179688,26.4453125 L39.2179688,8.73710937 L22.7746094,8.73710937 Z" id="Path" fill="#FDD388" fill-rule="nonzero"></path>
                                <path d="M5.57480469,0.19453125 L15.2169922,0.19453125 L15.2169922,11.2509766 L5.57480469,11.2509766 C2.52167969,11.2509766 0.0466796875,8.77597656 0.0466796875,5.72285156 C0.0466796875,2.66972656 2.52148437,0.19453125 5.57480469,0.19453125 Z" id="Path" fill="#FDC869" fill-rule="nonzero"></path>
                                <path d="M56.4177734,0.19453125 L46.7755859,0.19453125 L46.7755859,11.2509766 L56.4177734,11.2509766 C59.4708984,11.2509766 61.9458984,8.77597656 61.9458984,5.72285156 C61.9458984,2.66972656 59.4708984,0.19453125 56.4177734,0.19453125 Z" id="Path" fill="#FDC869" fill-rule="nonzero"></path>
                            </g>
                            <path d="M54.0640625,32.4501953 L54.0640625,44.8183594 C54.0640625,56.9207031 44.3458984,66.9111328 32.24375,66.9520811 C20.1154297,66.9929688 10.2720703,57.1728516 10.2720703,45.0560547 L10.2720703,36.5015625 C10.2720703,36.328125 10.3757812,36.1734375 10.5335937,36.1013672 C15.8318359,33.6816406 17.5998047,27.4033203 18.0667969,22.9080078 C18.1664062,21.9384766 18.2054687,21.0521484 18.2068359,20.3052734 C18.2076172,19.9021484 18.7048828,19.7150391 18.9732422,20.015625 C19.5904297,20.7070313 20.5498047,21.7296875 21.8050781,22.9078125 C27.5921875,28.3443359 39.66875,37.1042969 53.4771484,32.0373047 C53.7621094,31.9328125 54.0640625,32.1464844 54.0640625,32.4501953 Z" id="Path" fill="#FFE2AE" fill-rule="nonzero"></path>
                            <path d="M32.1681641,56.3455078 C29.5328125,56.3455078 27.0625,55.0503906 25.5603516,52.8808594 C25.0998047,52.2158203 25.265625,51.3033203 25.9306641,50.8425781 C26.5953125,50.3820313 27.5083984,50.5478516 27.9689453,51.2128906 C28.9242187,52.5923828 30.4939453,53.4158203 32.1683594,53.4158203 C33.8427734,53.4158203 35.4125,52.5923828 36.3677734,51.2128906 C36.8283203,50.5478516 37.740625,50.3820313 38.4058594,50.8425781 C39.0708984,51.303125 39.2369141,52.215625 38.7763672,52.8808594 C37.2736328,55.0503906 34.8035156,56.3455078 32.1681641,56.3455078 Z" id="Path" fill="#19303F" fill-rule="nonzero"></path>
                            <path d="M49.5076172,47.3335938 C49.5076172,57.7978516 41.3146484,66.3476563 30.9935547,66.9203125 L30.9939453,66.9203125 C31.1871094,66.9304688 31.3810547,66.9382813 31.5753906,66.9435547 C31.5765625,66.9435547 31.5777344,66.94375 31.5791016,66.94375 C31.7748047,66.9490234 31.9710938,66.9517578 32.1679688,66.9517578 L32.1679688,66.9517578 C32.7228516,66.9517578 33.2728516,66.9306641 33.8173828,66.8902344 C33.8455078,66.8880859 33.8738281,66.8857422 33.9019531,66.8835938 C34.2347656,66.8574219 34.5654297,66.8238281 34.8939453,66.7830078 C45.7007812,65.4408203 54.0638672,56.2242188 54.0638672,45.0556641 L54.0638672,31.8136719 C52.5222656,32.4212891 51.0013672,32.8546875 49.5076172,33.1375 L49.5076172,47.3333984 L49.5076172,47.3333984 L49.5076172,47.3335938 Z" id="Path" fill="#FDD388" fill-rule="nonzero"></path>
                            <g id="Group" stroke-width="1" fill="none" fill-rule="evenodd" transform="translate(19.921875, 41.992188)">
                                <path d="M22.8560547,3.509375 C22.046875,3.509375 21.3912109,2.85351562 21.3912109,2.04453125 L21.3912109,1.65390625 C21.3912109,0.844921875 22.046875,0.1890625 22.8560547,0.1890625 C23.6652344,0.1890625 24.3208984,0.844921875 24.3208984,1.65390625 L24.3208984,2.04453125 C24.3208984,2.85351563 23.6652344,3.509375 22.8560547,3.509375 Z" id="Path" fill="#19303F" fill-rule="nonzero"></path>
                                <path d="M1.63652344,3.509375 C0.82734375,3.509375 0.171679687,2.85351562 0.171679687,2.04453125 L0.171679687,1.65390625 C0.171679687,0.844921875 0.82734375,0.1890625 1.63652344,0.1890625 C2.44570312,0.1890625 3.10136719,0.844921875 3.10136719,1.65390625 L3.10136719,2.04453125 C3.10136719,2.85351563 2.44550781,3.509375 1.63652344,3.509375 Z" id="Path" fill="#19303F" fill-rule="nonzero"></path>
                            </g>
                            <path d="M16.3888672,82.6625 C14.0240234,82.6625 12.1,84.5865234 12.1,86.9511719 C12.1,89.3158203 14.0240234,91.2398438 16.3888672,91.2398438 C18.7537109,91.2398438 20.6777344,89.3158203 20.6777344,86.9511719 C20.6775391,84.5865234 18.7535156,82.6625 16.3888672,82.6625 Z" id="Path" fill="#78D6D1" fill-rule="nonzero"></path>
                            <path d="M32.1681641,79.6322266 L27.7671875,82.69375 C28.8777344,83.8498047 30.4382812,84.5707031 32.1681641,84.5707031 C33.8980469,84.5707031 35.4583984,83.85 36.5691406,82.69375 L32.1681641,79.6322266 Z" id="Path" fill="#304A56" fill-rule="nonzero"></path>
                            <g id="Group" stroke-width="1" fill="none" fill-rule="evenodd" transform="translate(28.125000, 83.593750)">
                                <path d="M4.04316406,0.976953125 C3.40410156,0.976953125 2.78828125,0.877929688 2.20976562,0.695703125 L0.185742187,16.40625 L7.90039062,16.40625 L5.87636719,0.695703125 C5.29785156,0.877929688 4.68222656,0.976953125 4.04316406,0.976953125 Z" id="Path" fill="#3D5868" fill-rule="nonzero"></path>
                                <path d="M24.6650391,12.3134766 L23.9542969,12.3134766 C23.1451172,12.3134766 22.4894531,11.6576172 22.4894531,10.8486328 C22.4894531,10.3154297 22.7742188,9.84882813 23.2001953,9.59257813 L23.2001953,5.39667969 C23.2001953,4.06328125 22.1154297,2.97871094 20.7820312,2.97871094 C19.4486328,2.97871094 18.3638672,4.06347656 18.3638672,5.39667969 L18.3638672,9.59257813 C18.7898437,9.84882813 19.0746094,10.3154297 19.0746094,10.8486328 C19.0746094,11.6576172 18.4189453,12.3134766 17.6097656,12.3134766 L16.8990234,12.3134766 C16.0898438,12.3134766 15.4341797,11.6576172 15.4341797,10.8486328 L15.4341797,5.396875 C15.4341797,2.44804687 17.8332031,0.0494140625 20.7818359,0.0494140625 C23.7306641,0.0494140625 26.1294922,2.4484375 26.1294922,5.396875 L26.1294922,10.8486328 C26.1296875,11.6576172 25.4738281,12.3134766 24.6650391,12.3134766 Z" id="Path" fill="#3D5868" fill-rule="nonzero"></path>
                            </g>
                        </g>
                    </g>
                </g>
            </g>
        </g>
    </g>
</svg>